<mxfile host="app.diagrams.net" modified="2023-10-14T16:56:15.234Z" agent="Mozilla/5.0 (Windows NT 10.0; Win64; x64) AppleWebKit/537.36 (KHTML, like Gecko) Chrome/116.0.0.0 Safari/537.36 OPR/102.0.0.0" etag="U31gYSiiZGlNB_E9a5gN" version="22.0.4" type="device">
  <diagram id="R2lEEEUBdFMjLlhIrx00" name="Page-1">
    <mxGraphModel dx="1824" dy="525" grid="1" gridSize="10" guides="1" tooltips="1" connect="1" arrows="1" fold="1" page="1" pageScale="1" pageWidth="850" pageHeight="1100" math="0" shadow="0" extFonts="Permanent Marker^https://fonts.googleapis.com/css?family=Permanent+Marker">
      <root>
        <mxCell id="0" />
        <mxCell id="1" parent="0" />
        <mxCell id="lgJF_qAaGjVJPPp3hp7k-55" style="edgeStyle=orthogonalEdgeStyle;rounded=0;orthogonalLoop=1;jettySize=auto;html=1;exitX=0.5;exitY=1;exitDx=0;exitDy=0;" edge="1" parent="1" source="lgJF_qAaGjVJPPp3hp7k-1" target="lgJF_qAaGjVJPPp3hp7k-10">
          <mxGeometry relative="1" as="geometry" />
        </mxCell>
        <mxCell id="lgJF_qAaGjVJPPp3hp7k-56" style="edgeStyle=orthogonalEdgeStyle;rounded=0;orthogonalLoop=1;jettySize=auto;html=1;exitX=1;exitY=0.5;exitDx=0;exitDy=0;entryX=0;entryY=0.5;entryDx=0;entryDy=0;" edge="1" parent="1" source="lgJF_qAaGjVJPPp3hp7k-1" target="lgJF_qAaGjVJPPp3hp7k-11">
          <mxGeometry relative="1" as="geometry" />
        </mxCell>
        <mxCell id="lgJF_qAaGjVJPPp3hp7k-1" value="CLIENT" style="rounded=0;whiteSpace=wrap;html=1;" vertex="1" parent="1">
          <mxGeometry x="80" y="40" width="120" height="60" as="geometry" />
        </mxCell>
        <mxCell id="lgJF_qAaGjVJPPp3hp7k-2" value="TREBALLADOR" style="rounded=0;whiteSpace=wrap;html=1;" vertex="1" parent="1">
          <mxGeometry x="640" y="40" width="120" height="60" as="geometry" />
        </mxCell>
        <mxCell id="lgJF_qAaGjVJPPp3hp7k-59" style="edgeStyle=orthogonalEdgeStyle;rounded=0;orthogonalLoop=1;jettySize=auto;html=1;exitX=1;exitY=1;exitDx=0;exitDy=0;entryX=0;entryY=0.5;entryDx=0;entryDy=0;" edge="1" parent="1" source="lgJF_qAaGjVJPPp3hp7k-3" target="lgJF_qAaGjVJPPp3hp7k-4">
          <mxGeometry relative="1" as="geometry" />
        </mxCell>
        <mxCell id="lgJF_qAaGjVJPPp3hp7k-3" value="IMMOBLE" style="rounded=0;whiteSpace=wrap;html=1;" vertex="1" parent="1">
          <mxGeometry x="300" y="250" width="120" height="60" as="geometry" />
        </mxCell>
        <mxCell id="lgJF_qAaGjVJPPp3hp7k-65" style="edgeStyle=orthogonalEdgeStyle;rounded=0;orthogonalLoop=1;jettySize=auto;html=1;exitX=0.5;exitY=1;exitDx=0;exitDy=0;entryX=0.5;entryY=0;entryDx=0;entryDy=0;" edge="1" parent="1" source="lgJF_qAaGjVJPPp3hp7k-4" target="lgJF_qAaGjVJPPp3hp7k-9">
          <mxGeometry relative="1" as="geometry">
            <mxPoint x="315" y="480" as="targetPoint" />
          </mxGeometry>
        </mxCell>
        <mxCell id="lgJF_qAaGjVJPPp3hp7k-68" style="edgeStyle=orthogonalEdgeStyle;rounded=0;orthogonalLoop=1;jettySize=auto;html=1;exitX=0.5;exitY=0;exitDx=0;exitDy=0;entryX=0.5;entryY=0;entryDx=0;entryDy=0;" edge="1" parent="1" source="lgJF_qAaGjVJPPp3hp7k-4">
          <mxGeometry relative="1" as="geometry">
            <mxPoint x="630" y="480" as="targetPoint" />
          </mxGeometry>
        </mxCell>
        <mxCell id="lgJF_qAaGjVJPPp3hp7k-69" style="edgeStyle=orthogonalEdgeStyle;rounded=0;orthogonalLoop=1;jettySize=auto;html=1;exitX=0.5;exitY=0;exitDx=0;exitDy=0;entryX=0.75;entryY=0;entryDx=0;entryDy=0;" edge="1" parent="1" source="lgJF_qAaGjVJPPp3hp7k-4">
          <mxGeometry relative="1" as="geometry">
            <mxPoint x="500" y="480" as="targetPoint" />
            <Array as="points">
              <mxPoint x="500" y="390" />
            </Array>
          </mxGeometry>
        </mxCell>
        <mxCell id="lgJF_qAaGjVJPPp3hp7k-4" value="" style="triangle;whiteSpace=wrap;html=1;rotation=90;" vertex="1" parent="1">
          <mxGeometry x="400" y="350" width="60" height="80" as="geometry" />
        </mxCell>
        <mxCell id="lgJF_qAaGjVJPPp3hp7k-6" value="ES" style="text;html=1;strokeColor=none;fillColor=none;align=center;verticalAlign=middle;whiteSpace=wrap;rounded=0;" vertex="1" parent="1">
          <mxGeometry x="420" y="370" width="20" height="20" as="geometry" />
        </mxCell>
        <mxCell id="lgJF_qAaGjVJPPp3hp7k-7" value="PIS" style="rounded=0;whiteSpace=wrap;html=1;" vertex="1" parent="1">
          <mxGeometry x="390" y="460" width="120" height="60" as="geometry" />
        </mxCell>
        <mxCell id="lgJF_qAaGjVJPPp3hp7k-8" value="LOCAL" style="rounded=0;whiteSpace=wrap;html=1;" vertex="1" parent="1">
          <mxGeometry x="550" y="460" width="120" height="60" as="geometry" />
        </mxCell>
        <mxCell id="lgJF_qAaGjVJPPp3hp7k-9" value="PL PARKING" style="rounded=0;whiteSpace=wrap;html=1;" vertex="1" parent="1">
          <mxGeometry x="190" y="460" width="120" height="60" as="geometry" />
        </mxCell>
        <mxCell id="lgJF_qAaGjVJPPp3hp7k-58" style="edgeStyle=orthogonalEdgeStyle;rounded=0;orthogonalLoop=1;jettySize=auto;html=1;exitX=1;exitY=1;exitDx=0;exitDy=0;entryX=0;entryY=0.5;entryDx=0;entryDy=0;entryPerimeter=0;" edge="1" parent="1" target="lgJF_qAaGjVJPPp3hp7k-3">
          <mxGeometry relative="1" as="geometry">
            <mxPoint x="172.5" y="247.5" as="sourcePoint" />
            <mxPoint x="290" y="287.5" as="targetPoint" />
          </mxGeometry>
        </mxCell>
        <mxCell id="lgJF_qAaGjVJPPp3hp7k-10" value="Comprar" style="rhombus;whiteSpace=wrap;html=1;" vertex="1" parent="1">
          <mxGeometry x="100" y="180" width="110" height="80" as="geometry" />
        </mxCell>
        <mxCell id="lgJF_qAaGjVJPPp3hp7k-57" style="edgeStyle=orthogonalEdgeStyle;rounded=0;orthogonalLoop=1;jettySize=auto;html=1;exitX=0.5;exitY=1;exitDx=0;exitDy=0;" edge="1" parent="1" source="lgJF_qAaGjVJPPp3hp7k-11" target="lgJF_qAaGjVJPPp3hp7k-3">
          <mxGeometry relative="1" as="geometry">
            <mxPoint x="365" y="195" as="sourcePoint" />
          </mxGeometry>
        </mxCell>
        <mxCell id="lgJF_qAaGjVJPPp3hp7k-11" value="Llogar" style="rhombus;whiteSpace=wrap;html=1;" vertex="1" parent="1">
          <mxGeometry x="290" y="95" width="110" height="80" as="geometry" />
        </mxCell>
        <mxCell id="lgJF_qAaGjVJPPp3hp7k-29" style="edgeStyle=orthogonalEdgeStyle;rounded=0;orthogonalLoop=1;jettySize=auto;html=1;exitX=1;exitY=0.5;exitDx=0;exitDy=0;entryX=0.25;entryY=0;entryDx=0;entryDy=0;" edge="1" parent="1" source="lgJF_qAaGjVJPPp3hp7k-14" target="lgJF_qAaGjVJPPp3hp7k-1">
          <mxGeometry relative="1" as="geometry" />
        </mxCell>
        <mxCell id="lgJF_qAaGjVJPPp3hp7k-14" value="DNI" style="ellipse;whiteSpace=wrap;html=1;" vertex="1" parent="1">
          <mxGeometry width="90" height="30" as="geometry" />
        </mxCell>
        <mxCell id="lgJF_qAaGjVJPPp3hp7k-33" style="edgeStyle=orthogonalEdgeStyle;rounded=0;orthogonalLoop=1;jettySize=auto;html=1;exitX=1;exitY=0;exitDx=0;exitDy=0;entryX=0.25;entryY=1;entryDx=0;entryDy=0;" edge="1" parent="1" source="lgJF_qAaGjVJPPp3hp7k-15" target="lgJF_qAaGjVJPPp3hp7k-1">
          <mxGeometry relative="1" as="geometry" />
        </mxCell>
        <mxCell id="lgJF_qAaGjVJPPp3hp7k-15" value="Cognoms" style="ellipse;whiteSpace=wrap;html=1;" vertex="1" parent="1">
          <mxGeometry x="-10" y="150" width="90" height="30" as="geometry" />
        </mxCell>
        <mxCell id="lgJF_qAaGjVJPPp3hp7k-30" style="edgeStyle=orthogonalEdgeStyle;rounded=0;orthogonalLoop=1;jettySize=auto;html=1;exitX=1;exitY=0.5;exitDx=0;exitDy=0;entryX=0;entryY=0.25;entryDx=0;entryDy=0;" edge="1" parent="1" source="lgJF_qAaGjVJPPp3hp7k-16" target="lgJF_qAaGjVJPPp3hp7k-1">
          <mxGeometry relative="1" as="geometry" />
        </mxCell>
        <mxCell id="lgJF_qAaGjVJPPp3hp7k-16" value="Tlf_Fix" style="ellipse;whiteSpace=wrap;html=1;" vertex="1" parent="1">
          <mxGeometry x="-50" y="30" width="90" height="30" as="geometry" />
        </mxCell>
        <mxCell id="lgJF_qAaGjVJPPp3hp7k-31" style="edgeStyle=orthogonalEdgeStyle;rounded=0;orthogonalLoop=1;jettySize=auto;html=1;exitX=1;exitY=0.5;exitDx=0;exitDy=0;entryX=0;entryY=0.5;entryDx=0;entryDy=0;" edge="1" parent="1" source="lgJF_qAaGjVJPPp3hp7k-17" target="lgJF_qAaGjVJPPp3hp7k-1">
          <mxGeometry relative="1" as="geometry" />
        </mxCell>
        <mxCell id="lgJF_qAaGjVJPPp3hp7k-17" value="MÃ²bil" style="ellipse;whiteSpace=wrap;html=1;" vertex="1" parent="1">
          <mxGeometry x="-50" y="70" width="90" height="30" as="geometry" />
        </mxCell>
        <mxCell id="lgJF_qAaGjVJPPp3hp7k-32" style="edgeStyle=orthogonalEdgeStyle;rounded=0;orthogonalLoop=1;jettySize=auto;html=1;exitX=1;exitY=0.5;exitDx=0;exitDy=0;entryX=0;entryY=1;entryDx=0;entryDy=0;" edge="1" parent="1" source="lgJF_qAaGjVJPPp3hp7k-18" target="lgJF_qAaGjVJPPp3hp7k-1">
          <mxGeometry relative="1" as="geometry">
            <Array as="points">
              <mxPoint x="40" y="120" />
              <mxPoint x="80" y="120" />
            </Array>
          </mxGeometry>
        </mxCell>
        <mxCell id="lgJF_qAaGjVJPPp3hp7k-18" value="Nom" style="ellipse;whiteSpace=wrap;html=1;" vertex="1" parent="1">
          <mxGeometry x="-50" y="110" width="90" height="30" as="geometry" />
        </mxCell>
        <mxCell id="lgJF_qAaGjVJPPp3hp7k-36" style="edgeStyle=orthogonalEdgeStyle;rounded=0;orthogonalLoop=1;jettySize=auto;html=1;exitX=0;exitY=0.5;exitDx=0;exitDy=0;entryX=0.75;entryY=0;entryDx=0;entryDy=0;" edge="1" parent="1" source="lgJF_qAaGjVJPPp3hp7k-19" target="lgJF_qAaGjVJPPp3hp7k-2">
          <mxGeometry relative="1" as="geometry" />
        </mxCell>
        <mxCell id="lgJF_qAaGjVJPPp3hp7k-19" value="DNI" style="ellipse;whiteSpace=wrap;html=1;" vertex="1" parent="1">
          <mxGeometry x="760" width="90" height="30" as="geometry" />
        </mxCell>
        <mxCell id="lgJF_qAaGjVJPPp3hp7k-20" style="edgeStyle=orthogonalEdgeStyle;rounded=0;orthogonalLoop=1;jettySize=auto;html=1;exitX=0.5;exitY=1;exitDx=0;exitDy=0;" edge="1" parent="1" source="lgJF_qAaGjVJPPp3hp7k-17" target="lgJF_qAaGjVJPPp3hp7k-17">
          <mxGeometry relative="1" as="geometry" />
        </mxCell>
        <mxCell id="lgJF_qAaGjVJPPp3hp7k-40" style="edgeStyle=orthogonalEdgeStyle;rounded=0;orthogonalLoop=1;jettySize=auto;html=1;exitX=0;exitY=0.5;exitDx=0;exitDy=0;entryX=1;entryY=0.5;entryDx=0;entryDy=0;" edge="1" parent="1" source="lgJF_qAaGjVJPPp3hp7k-21" target="lgJF_qAaGjVJPPp3hp7k-2">
          <mxGeometry relative="1" as="geometry" />
        </mxCell>
        <mxCell id="lgJF_qAaGjVJPPp3hp7k-21" value="MÃ²bil" style="ellipse;whiteSpace=wrap;html=1;" vertex="1" parent="1">
          <mxGeometry x="800" y="80" width="90" height="30" as="geometry" />
        </mxCell>
        <mxCell id="lgJF_qAaGjVJPPp3hp7k-41" style="edgeStyle=orthogonalEdgeStyle;rounded=0;orthogonalLoop=1;jettySize=auto;html=1;exitX=0;exitY=0.5;exitDx=0;exitDy=0;entryX=1;entryY=1;entryDx=0;entryDy=0;" edge="1" parent="1" source="lgJF_qAaGjVJPPp3hp7k-22" target="lgJF_qAaGjVJPPp3hp7k-2">
          <mxGeometry relative="1" as="geometry" />
        </mxCell>
        <mxCell id="lgJF_qAaGjVJPPp3hp7k-22" value="Nom" style="ellipse;whiteSpace=wrap;html=1;" vertex="1" parent="1">
          <mxGeometry x="800" y="120" width="90" height="30" as="geometry" />
        </mxCell>
        <mxCell id="lgJF_qAaGjVJPPp3hp7k-38" style="edgeStyle=orthogonalEdgeStyle;rounded=0;orthogonalLoop=1;jettySize=auto;html=1;exitX=0;exitY=0.5;exitDx=0;exitDy=0;entryX=1;entryY=0.25;entryDx=0;entryDy=0;" edge="1" parent="1" source="lgJF_qAaGjVJPPp3hp7k-23" target="lgJF_qAaGjVJPPp3hp7k-2">
          <mxGeometry relative="1" as="geometry" />
        </mxCell>
        <mxCell id="lgJF_qAaGjVJPPp3hp7k-23" value="Tlf_Fix" style="ellipse;whiteSpace=wrap;html=1;" vertex="1" parent="1">
          <mxGeometry x="800" y="40" width="90" height="30" as="geometry" />
        </mxCell>
        <mxCell id="lgJF_qAaGjVJPPp3hp7k-42" style="edgeStyle=orthogonalEdgeStyle;rounded=0;orthogonalLoop=1;jettySize=auto;html=1;exitX=0;exitY=0;exitDx=0;exitDy=0;entryX=0.75;entryY=1;entryDx=0;entryDy=0;" edge="1" parent="1" source="lgJF_qAaGjVJPPp3hp7k-24" target="lgJF_qAaGjVJPPp3hp7k-2">
          <mxGeometry relative="1" as="geometry" />
        </mxCell>
        <mxCell id="lgJF_qAaGjVJPPp3hp7k-24" value="Cognom" style="ellipse;whiteSpace=wrap;html=1;" vertex="1" parent="1">
          <mxGeometry x="740" y="150" width="90" height="30" as="geometry" />
        </mxCell>
        <mxCell id="lgJF_qAaGjVJPPp3hp7k-34" style="edgeStyle=orthogonalEdgeStyle;rounded=0;orthogonalLoop=1;jettySize=auto;html=1;exitX=0;exitY=0.5;exitDx=0;exitDy=0;entryX=0.75;entryY=0;entryDx=0;entryDy=0;" edge="1" parent="1" source="lgJF_qAaGjVJPPp3hp7k-26" target="lgJF_qAaGjVJPPp3hp7k-1">
          <mxGeometry relative="1" as="geometry">
            <Array as="points">
              <mxPoint x="240" y="20" />
              <mxPoint x="170" y="20" />
            </Array>
          </mxGeometry>
        </mxCell>
        <mxCell id="lgJF_qAaGjVJPPp3hp7k-26" value="&lt;b&gt;&lt;u&gt;Id_personal&lt;/u&gt;&lt;/b&gt;" style="ellipse;whiteSpace=wrap;html=1;" vertex="1" parent="1">
          <mxGeometry x="240" y="10" width="90" height="30" as="geometry" />
        </mxCell>
        <mxCell id="lgJF_qAaGjVJPPp3hp7k-35" style="edgeStyle=orthogonalEdgeStyle;rounded=0;orthogonalLoop=1;jettySize=auto;html=1;exitX=1;exitY=0.5;exitDx=0;exitDy=0;entryX=0.25;entryY=0;entryDx=0;entryDy=0;" edge="1" parent="1" source="lgJF_qAaGjVJPPp3hp7k-28" target="lgJF_qAaGjVJPPp3hp7k-2">
          <mxGeometry relative="1" as="geometry" />
        </mxCell>
        <mxCell id="lgJF_qAaGjVJPPp3hp7k-28" value="&lt;u&gt;&lt;b&gt;Id_personal&lt;/b&gt;&lt;/u&gt;" style="ellipse;whiteSpace=wrap;html=1;" vertex="1" parent="1">
          <mxGeometry x="510" y="10" width="90" height="30" as="geometry" />
        </mxCell>
        <mxCell id="lgJF_qAaGjVJPPp3hp7k-61" style="edgeStyle=orthogonalEdgeStyle;rounded=0;orthogonalLoop=1;jettySize=auto;html=1;exitX=1;exitY=0;exitDx=0;exitDy=0;" edge="1" parent="1" source="lgJF_qAaGjVJPPp3hp7k-44" target="lgJF_qAaGjVJPPp3hp7k-3">
          <mxGeometry relative="1" as="geometry" />
        </mxCell>
        <mxCell id="lgJF_qAaGjVJPPp3hp7k-44" value="&lt;b&gt;&lt;u&gt;Id_Immoble&lt;/u&gt;&lt;/b&gt;" style="ellipse;whiteSpace=wrap;html=1;" vertex="1" parent="1">
          <mxGeometry x="270" y="330" width="90" height="30" as="geometry" />
        </mxCell>
        <mxCell id="lgJF_qAaGjVJPPp3hp7k-64" style="edgeStyle=orthogonalEdgeStyle;rounded=0;orthogonalLoop=1;jettySize=auto;html=1;exitX=0;exitY=0.5;exitDx=0;exitDy=0;entryX=0.75;entryY=0;entryDx=0;entryDy=0;" edge="1" parent="1" source="lgJF_qAaGjVJPPp3hp7k-45" target="lgJF_qAaGjVJPPp3hp7k-3">
          <mxGeometry relative="1" as="geometry" />
        </mxCell>
        <mxCell id="lgJF_qAaGjVJPPp3hp7k-45" value="Metres" style="ellipse;whiteSpace=wrap;html=1;" vertex="1" parent="1">
          <mxGeometry x="425" y="225" width="90" height="30" as="geometry" />
        </mxCell>
        <mxCell id="lgJF_qAaGjVJPPp3hp7k-46" value="DescripciÃ³" style="ellipse;whiteSpace=wrap;html=1;" vertex="1" parent="1">
          <mxGeometry x="480" y="255" width="90" height="30" as="geometry" />
        </mxCell>
        <mxCell id="lgJF_qAaGjVJPPp3hp7k-47" value="AdreÃ§a" style="ellipse;whiteSpace=wrap;html=1;" vertex="1" parent="1">
          <mxGeometry x="480" y="300" width="90" height="30" as="geometry" />
        </mxCell>
        <mxCell id="lgJF_qAaGjVJPPp3hp7k-73" style="edgeStyle=orthogonalEdgeStyle;rounded=0;orthogonalLoop=1;jettySize=auto;html=1;exitX=0.5;exitY=0;exitDx=0;exitDy=0;" edge="1" parent="1" source="lgJF_qAaGjVJPPp3hp7k-48" target="lgJF_qAaGjVJPPp3hp7k-7">
          <mxGeometry relative="1" as="geometry" />
        </mxCell>
        <mxCell id="lgJF_qAaGjVJPPp3hp7k-48" value="Id_pis" style="ellipse;whiteSpace=wrap;html=1;" vertex="1" parent="1">
          <mxGeometry x="405" y="560" width="90" height="30" as="geometry" />
        </mxCell>
        <mxCell id="lgJF_qAaGjVJPPp3hp7k-74" style="edgeStyle=orthogonalEdgeStyle;rounded=0;orthogonalLoop=1;jettySize=auto;html=1;exitX=0.5;exitY=0;exitDx=0;exitDy=0;entryX=0.5;entryY=1;entryDx=0;entryDy=0;" edge="1" parent="1" source="lgJF_qAaGjVJPPp3hp7k-50" target="lgJF_qAaGjVJPPp3hp7k-8">
          <mxGeometry relative="1" as="geometry" />
        </mxCell>
        <mxCell id="lgJF_qAaGjVJPPp3hp7k-50" value="Ãs" style="ellipse;whiteSpace=wrap;html=1;" vertex="1" parent="1">
          <mxGeometry x="530" y="560" width="90" height="30" as="geometry" />
        </mxCell>
        <mxCell id="lgJF_qAaGjVJPPp3hp7k-75" style="edgeStyle=orthogonalEdgeStyle;rounded=0;orthogonalLoop=1;jettySize=auto;html=1;exitX=0.5;exitY=0;exitDx=0;exitDy=0;" edge="1" parent="1" source="lgJF_qAaGjVJPPp3hp7k-51">
          <mxGeometry relative="1" as="geometry">
            <mxPoint x="610" y="520" as="targetPoint" />
          </mxGeometry>
        </mxCell>
        <mxCell id="lgJF_qAaGjVJPPp3hp7k-51" value="Servei" style="ellipse;whiteSpace=wrap;html=1;" vertex="1" parent="1">
          <mxGeometry x="640" y="560" width="90" height="30" as="geometry" />
        </mxCell>
        <mxCell id="lgJF_qAaGjVJPPp3hp7k-71" style="edgeStyle=orthogonalEdgeStyle;rounded=0;orthogonalLoop=1;jettySize=auto;html=1;exitX=0.5;exitY=0;exitDx=0;exitDy=0;entryX=0.5;entryY=1;entryDx=0;entryDy=0;" edge="1" parent="1" source="lgJF_qAaGjVJPPp3hp7k-52" target="lgJF_qAaGjVJPPp3hp7k-9">
          <mxGeometry relative="1" as="geometry" />
        </mxCell>
        <mxCell id="lgJF_qAaGjVJPPp3hp7k-52" value="Num_paÃ§a" style="ellipse;whiteSpace=wrap;html=1;" vertex="1" parent="1">
          <mxGeometry x="155" y="560" width="90" height="30" as="geometry" />
        </mxCell>
        <mxCell id="lgJF_qAaGjVJPPp3hp7k-72" style="edgeStyle=orthogonalEdgeStyle;rounded=0;orthogonalLoop=1;jettySize=auto;html=1;exitX=0.5;exitY=0;exitDx=0;exitDy=0;entryX=0.5;entryY=1;entryDx=0;entryDy=0;" edge="1" parent="1" source="lgJF_qAaGjVJPPp3hp7k-53" target="lgJF_qAaGjVJPPp3hp7k-9">
          <mxGeometry relative="1" as="geometry" />
        </mxCell>
        <mxCell id="lgJF_qAaGjVJPPp3hp7k-53" value="PlantaPk" style="ellipse;whiteSpace=wrap;html=1;" vertex="1" parent="1">
          <mxGeometry x="255" y="560" width="90" height="30" as="geometry" />
        </mxCell>
        <mxCell id="lgJF_qAaGjVJPPp3hp7k-54" value="TIPUS_DESCONEGUT" style="rounded=0;whiteSpace=wrap;html=1;" vertex="1" parent="1">
          <mxGeometry x="20" y="450" width="130" height="60" as="geometry" />
        </mxCell>
        <mxCell id="lgJF_qAaGjVJPPp3hp7k-62" style="edgeStyle=orthogonalEdgeStyle;rounded=0;orthogonalLoop=1;jettySize=auto;html=1;exitX=0;exitY=0.5;exitDx=0;exitDy=0;entryX=1.002;entryY=0.883;entryDx=0;entryDy=0;entryPerimeter=0;" edge="1" parent="1" source="lgJF_qAaGjVJPPp3hp7k-47" target="lgJF_qAaGjVJPPp3hp7k-3">
          <mxGeometry relative="1" as="geometry" />
        </mxCell>
        <mxCell id="lgJF_qAaGjVJPPp3hp7k-63" style="edgeStyle=orthogonalEdgeStyle;rounded=0;orthogonalLoop=1;jettySize=auto;html=1;exitX=0;exitY=0.5;exitDx=0;exitDy=0;entryX=1.008;entryY=0.377;entryDx=0;entryDy=0;entryPerimeter=0;" edge="1" parent="1" source="lgJF_qAaGjVJPPp3hp7k-46" target="lgJF_qAaGjVJPPp3hp7k-3">
          <mxGeometry relative="1" as="geometry" />
        </mxCell>
        <mxCell id="lgJF_qAaGjVJPPp3hp7k-66" style="edgeStyle=orthogonalEdgeStyle;rounded=0;orthogonalLoop=1;jettySize=auto;html=1;exitX=0.5;exitY=0;exitDx=0;exitDy=0;entryX=0.383;entryY=-0.003;entryDx=0;entryDy=0;entryPerimeter=0;" edge="1" parent="1" source="lgJF_qAaGjVJPPp3hp7k-54" target="lgJF_qAaGjVJPPp3hp7k-54">
          <mxGeometry relative="1" as="geometry" />
        </mxCell>
        <mxCell id="lgJF_qAaGjVJPPp3hp7k-67" style="edgeStyle=orthogonalEdgeStyle;rounded=0;orthogonalLoop=1;jettySize=auto;html=1;exitX=0.5;exitY=1;exitDx=0;exitDy=0;entryX=0.432;entryY=0.05;entryDx=0;entryDy=0;entryPerimeter=0;" edge="1" parent="1" source="lgJF_qAaGjVJPPp3hp7k-4" target="lgJF_qAaGjVJPPp3hp7k-54">
          <mxGeometry relative="1" as="geometry" />
        </mxCell>
        <mxCell id="lgJF_qAaGjVJPPp3hp7k-81" style="edgeStyle=orthogonalEdgeStyle;rounded=0;orthogonalLoop=1;jettySize=auto;html=1;exitX=1;exitY=0.5;exitDx=0;exitDy=0;entryX=0;entryY=0.5;entryDx=0;entryDy=0;" edge="1" parent="1" source="lgJF_qAaGjVJPPp3hp7k-77" target="lgJF_qAaGjVJPPp3hp7k-10">
          <mxGeometry relative="1" as="geometry">
            <mxPoint x="90" y="227.5" as="targetPoint" />
          </mxGeometry>
        </mxCell>
        <mxCell id="lgJF_qAaGjVJPPp3hp7k-77" value="&lt;b&gt;&lt;u&gt;Id_compra&lt;/u&gt;&lt;/b&gt;" style="ellipse;whiteSpace=wrap;html=1;" vertex="1" parent="1">
          <mxGeometry x="-30" y="212.5" width="90" height="30" as="geometry" />
        </mxCell>
        <mxCell id="lgJF_qAaGjVJPPp3hp7k-82" style="edgeStyle=orthogonalEdgeStyle;rounded=0;orthogonalLoop=1;jettySize=auto;html=1;exitX=1;exitY=0.5;exitDx=0;exitDy=0;entryX=0;entryY=1;entryDx=0;entryDy=0;" edge="1" parent="1" source="lgJF_qAaGjVJPPp3hp7k-78" target="lgJF_qAaGjVJPPp3hp7k-10">
          <mxGeometry relative="1" as="geometry">
            <mxPoint x="117.5" y="247.5" as="targetPoint" />
          </mxGeometry>
        </mxCell>
        <mxCell id="lgJF_qAaGjVJPPp3hp7k-78" value="Data_comp" style="ellipse;whiteSpace=wrap;html=1;" vertex="1" parent="1">
          <mxGeometry x="-30" y="252.5" width="90" height="30" as="geometry" />
        </mxCell>
        <mxCell id="lgJF_qAaGjVJPPp3hp7k-83" style="edgeStyle=orthogonalEdgeStyle;rounded=0;orthogonalLoop=1;jettySize=auto;html=1;exitX=1;exitY=0;exitDx=0;exitDy=0;entryX=0;entryY=1;entryDx=0;entryDy=0;" edge="1" parent="1" source="lgJF_qAaGjVJPPp3hp7k-79" target="lgJF_qAaGjVJPPp3hp7k-10">
          <mxGeometry relative="1" as="geometry">
            <mxPoint x="110" y="247.5" as="targetPoint" />
            <Array as="points">
              <mxPoint x="110" y="292" />
              <mxPoint x="110" y="268" />
              <mxPoint x="111" y="268" />
              <mxPoint x="111" y="240" />
            </Array>
          </mxGeometry>
        </mxCell>
        <mxCell id="lgJF_qAaGjVJPPp3hp7k-79" value="valor_comp" style="ellipse;whiteSpace=wrap;html=1;" vertex="1" parent="1">
          <mxGeometry x="10" y="287.5" width="90" height="30" as="geometry" />
        </mxCell>
        <mxCell id="lgJF_qAaGjVJPPp3hp7k-84" style="edgeStyle=orthogonalEdgeStyle;rounded=0;orthogonalLoop=1;jettySize=auto;html=1;exitX=0.5;exitY=0;exitDx=0;exitDy=0;entryX=0.431;entryY=0.988;entryDx=0;entryDy=0;entryPerimeter=0;" edge="1" parent="1" source="lgJF_qAaGjVJPPp3hp7k-80" target="lgJF_qAaGjVJPPp3hp7k-10">
          <mxGeometry relative="1" as="geometry">
            <mxPoint x="145" y="267.5" as="targetPoint" />
          </mxGeometry>
        </mxCell>
        <mxCell id="lgJF_qAaGjVJPPp3hp7k-80" value="Titulars" style="ellipse;whiteSpace=wrap;html=1;" vertex="1" parent="1">
          <mxGeometry x="100" y="317.5" width="90" height="30" as="geometry" />
        </mxCell>
        <mxCell id="lgJF_qAaGjVJPPp3hp7k-90" style="edgeStyle=orthogonalEdgeStyle;rounded=0;orthogonalLoop=1;jettySize=auto;html=1;exitX=0.5;exitY=1;exitDx=0;exitDy=0;entryX=0.5;entryY=0;entryDx=0;entryDy=0;" edge="1" parent="1" source="lgJF_qAaGjVJPPp3hp7k-85" target="lgJF_qAaGjVJPPp3hp7k-11">
          <mxGeometry relative="1" as="geometry" />
        </mxCell>
        <mxCell id="lgJF_qAaGjVJPPp3hp7k-85" value="Id_lloguer" style="ellipse;whiteSpace=wrap;html=1;" vertex="1" parent="1">
          <mxGeometry x="330" y="30" width="90" height="30" as="geometry" />
        </mxCell>
        <mxCell id="lgJF_qAaGjVJPPp3hp7k-91" style="edgeStyle=orthogonalEdgeStyle;rounded=0;orthogonalLoop=1;jettySize=auto;html=1;exitX=0;exitY=1;exitDx=0;exitDy=0;entryX=1;entryY=0;entryDx=0;entryDy=0;" edge="1" parent="1" source="lgJF_qAaGjVJPPp3hp7k-87" target="lgJF_qAaGjVJPPp3hp7k-11">
          <mxGeometry relative="1" as="geometry" />
        </mxCell>
        <mxCell id="lgJF_qAaGjVJPPp3hp7k-87" value="Nom_Agent" style="ellipse;whiteSpace=wrap;html=1;" vertex="1" parent="1">
          <mxGeometry x="425" y="65" width="90" height="30" as="geometry" />
        </mxCell>
        <mxCell id="lgJF_qAaGjVJPPp3hp7k-92" style="edgeStyle=orthogonalEdgeStyle;rounded=0;orthogonalLoop=1;jettySize=auto;html=1;exitX=0;exitY=0.5;exitDx=0;exitDy=0;" edge="1" parent="1" source="lgJF_qAaGjVJPPp3hp7k-88" target="lgJF_qAaGjVJPPp3hp7k-11">
          <mxGeometry relative="1" as="geometry" />
        </mxCell>
        <mxCell id="lgJF_qAaGjVJPPp3hp7k-88" value="Nom_Client" style="ellipse;whiteSpace=wrap;html=1;" vertex="1" parent="1">
          <mxGeometry x="440" y="100" width="90" height="30" as="geometry" />
        </mxCell>
        <mxCell id="lgJF_qAaGjVJPPp3hp7k-100" style="edgeStyle=orthogonalEdgeStyle;rounded=0;orthogonalLoop=1;jettySize=auto;html=1;exitX=0;exitY=0.25;exitDx=0;exitDy=0;entryX=1;entryY=1;entryDx=0;entryDy=0;" edge="1" parent="1" source="lgJF_qAaGjVJPPp3hp7k-93" target="lgJF_qAaGjVJPPp3hp7k-11">
          <mxGeometry relative="1" as="geometry" />
        </mxCell>
        <mxCell id="lgJF_qAaGjVJPPp3hp7k-93" value="PAGAMENT&lt;br&gt;LLOGUER" style="rounded=0;whiteSpace=wrap;html=1;" vertex="1" parent="1">
          <mxGeometry x="460" y="150" width="100" height="50" as="geometry" />
        </mxCell>
        <mxCell id="lgJF_qAaGjVJPPp3hp7k-97" style="edgeStyle=orthogonalEdgeStyle;rounded=0;orthogonalLoop=1;jettySize=auto;html=1;exitX=0;exitY=0.5;exitDx=0;exitDy=0;" edge="1" parent="1" source="lgJF_qAaGjVJPPp3hp7k-94" target="lgJF_qAaGjVJPPp3hp7k-93">
          <mxGeometry relative="1" as="geometry">
            <Array as="points">
              <mxPoint x="560" y="150" />
              <mxPoint x="560" y="150" />
            </Array>
          </mxGeometry>
        </mxCell>
        <mxCell id="lgJF_qAaGjVJPPp3hp7k-94" value="Any" style="ellipse;whiteSpace=wrap;html=1;" vertex="1" parent="1">
          <mxGeometry x="580" y="140" width="90" height="30" as="geometry" />
        </mxCell>
        <mxCell id="lgJF_qAaGjVJPPp3hp7k-98" style="edgeStyle=orthogonalEdgeStyle;rounded=0;orthogonalLoop=1;jettySize=auto;html=1;exitX=0;exitY=0.5;exitDx=0;exitDy=0;entryX=1;entryY=0.5;entryDx=0;entryDy=0;" edge="1" parent="1" source="lgJF_qAaGjVJPPp3hp7k-95" target="lgJF_qAaGjVJPPp3hp7k-93">
          <mxGeometry relative="1" as="geometry" />
        </mxCell>
        <mxCell id="lgJF_qAaGjVJPPp3hp7k-95" value="Mes" style="ellipse;whiteSpace=wrap;html=1;" vertex="1" parent="1">
          <mxGeometry x="590" y="175" width="90" height="30" as="geometry" />
        </mxCell>
        <mxCell id="lgJF_qAaGjVJPPp3hp7k-99" style="edgeStyle=orthogonalEdgeStyle;rounded=0;orthogonalLoop=1;jettySize=auto;html=1;exitX=0;exitY=0.5;exitDx=0;exitDy=0;entryX=0.75;entryY=1;entryDx=0;entryDy=0;" edge="1" parent="1" source="lgJF_qAaGjVJPPp3hp7k-96" target="lgJF_qAaGjVJPPp3hp7k-93">
          <mxGeometry relative="1" as="geometry" />
        </mxCell>
        <mxCell id="lgJF_qAaGjVJPPp3hp7k-96" value="Valor" style="ellipse;whiteSpace=wrap;html=1;" vertex="1" parent="1">
          <mxGeometry x="540" y="205" width="90" height="30" as="geometry" />
        </mxCell>
        <mxCell id="lgJF_qAaGjVJPPp3hp7k-102" value="" style="endArrow=none;dashed=1;html=1;rounded=0;entryX=0;entryY=0.5;entryDx=0;entryDy=0;" edge="1" parent="1" target="lgJF_qAaGjVJPPp3hp7k-7">
          <mxGeometry width="50" height="50" relative="1" as="geometry">
            <mxPoint x="310" y="490" as="sourcePoint" />
            <mxPoint x="360" y="440" as="targetPoint" />
          </mxGeometry>
        </mxCell>
        <mxCell id="lgJF_qAaGjVJPPp3hp7k-104" value="(1,M)" style="text;html=1;strokeColor=none;fillColor=none;align=center;verticalAlign=middle;whiteSpace=wrap;rounded=0;" vertex="1" parent="1">
          <mxGeometry x="265" y="252.5" width="40" height="30" as="geometry" />
        </mxCell>
        <mxCell id="lgJF_qAaGjVJPPp3hp7k-106" value="(1,1)" style="text;html=1;strokeColor=none;fillColor=none;align=center;verticalAlign=middle;whiteSpace=wrap;rounded=0;" vertex="1" parent="1">
          <mxGeometry x="190" y="70" width="60" height="30" as="geometry" />
        </mxCell>
      </root>
    </mxGraphModel>
  </diagram>
</mxfile>
